<svg id="Layer_1" data-name="Layer 1" xmlns="http://www.w3.org/2000/svg" viewBox="0 0 399.25 106.89"><defs><style>.cls-1{fill:#1369b3;}.cls-2{fill:#fbf7f8;}</style></defs><title>logo</title><rect class="cls-1" y="86.03" width="399.25" height="20.86"/><path class="cls-2" d="M832.1,474.08a3.08,3.08,0,0,1-.25,1.26,2.69,2.69,0,0,1-.69.95,3.08,3.08,0,0,1-1.06.59,4.21,4.21,0,0,1-1.34.2,4.44,4.44,0,0,1-.93-0.09,5.18,5.18,0,0,1-.78-0.23,4.08,4.08,0,0,1-.58-0.27,1.48,1.48,0,0,1-.32-0.23A0.57,0.57,0,0,1,826,476a1,1,0,0,1,0-.32,1.33,1.33,0,0,1,0-.23,0.57,0.57,0,0,1,0-.15,0.16,0.16,0,0,1,.07-0.08l0.09,0a0.63,0.63,0,0,1,.31.14,4.51,4.51,0,0,0,.53.31,4.88,4.88,0,0,0,.77.31,3.48,3.48,0,0,0,1,.14,2.81,2.81,0,0,0,.89-0.13,2.05,2.05,0,0,0,.7-0.39,1.72,1.72,0,0,0,.46-0.63,2.08,2.08,0,0,0,.16-0.85,1.63,1.63,0,0,0-.21-0.84,2.23,2.23,0,0,0-.55-0.62,4.53,4.53,0,0,0-.77-0.48l-0.88-.43q-0.45-.22-0.88-0.47a3.82,3.82,0,0,1-.77-0.59,2.68,2.68,0,0,1-.54-0.8,2.63,2.63,0,0,1-.21-1.09,2.71,2.71,0,0,1,.21-1.1,2.31,2.31,0,0,1,.61-0.83,2.68,2.68,0,0,1,.93-0.52,3.8,3.8,0,0,1,1.2-.18,3.48,3.48,0,0,1,.66.07,4.79,4.79,0,0,1,.63.17,3.48,3.48,0,0,1,.53.23,1.42,1.42,0,0,1,.31.2l0.1,0.11,0,0.09a0.86,0.86,0,0,1,0,.13c0,0.05,0,.12,0,0.19a1.42,1.42,0,0,1,0,.19,0.72,0.72,0,0,1,0,.15,0.25,0.25,0,0,1-.06.09,0.12,0.12,0,0,1-.08,0,0.58,0.58,0,0,1-.27-0.12l-0.45-.27a3.74,3.74,0,0,0-.64-0.27,2.81,2.81,0,0,0-.85-0.12,2.35,2.35,0,0,0-.82.13,1.65,1.65,0,0,0-.58.36,1.46,1.46,0,0,0-.35.53,1.78,1.78,0,0,0-.12.64,1.62,1.62,0,0,0,.21.84,2.22,2.22,0,0,0,.55.62,4.48,4.48,0,0,0,.78.49l0.88,0.43q0.45,0.22.88,0.47a3.75,3.75,0,0,1,.78.59,2.64,2.64,0,0,1,.55.79A2.56,2.56,0,0,1,832.1,474.08Z" transform="translate(-768.75 -375.89)"/><path class="cls-2" d="M835.24,476.77a0.18,0.18,0,0,1,0,.09,0.16,0.16,0,0,1-.08.07L835,477l-0.23,0-0.23,0-0.15,0a0.16,0.16,0,0,1-.08-0.07,0.18,0.18,0,0,1,0-.09V466.52a0.16,0.16,0,0,1,0-.09,0.19,0.19,0,0,1,.09-0.07l0.15,0,0.22,0,0.23,0,0.15,0a0.16,0.16,0,0,1,.08.07,0.18,0.18,0,0,1,0,.09v10.26Z" transform="translate(-768.75 -375.89)"/><path class="cls-2" d="M843.46,474.08a3.08,3.08,0,0,1-.25,1.26,2.69,2.69,0,0,1-.69.95,3.08,3.08,0,0,1-1.06.59,4.21,4.21,0,0,1-1.34.2,4.44,4.44,0,0,1-.93-0.09,5.18,5.18,0,0,1-.78-0.23,4.08,4.08,0,0,1-.58-0.27,1.48,1.48,0,0,1-.32-0.23,0.57,0.57,0,0,1-.13-0.22,1,1,0,0,1,0-.32,1.33,1.33,0,0,1,0-.23,0.57,0.57,0,0,1,0-.15,0.16,0.16,0,0,1,.07-0.08l0.09,0a0.63,0.63,0,0,1,.31.14,4.51,4.51,0,0,0,.53.31,4.88,4.88,0,0,0,.77.31,3.48,3.48,0,0,0,1,.14,2.81,2.81,0,0,0,.89-0.13,2.05,2.05,0,0,0,.7-0.39,1.72,1.72,0,0,0,.46-0.63,2.08,2.08,0,0,0,.16-0.85,1.63,1.63,0,0,0-.21-0.84,2.23,2.23,0,0,0-.55-0.62,4.53,4.53,0,0,0-.77-0.48l-0.88-.43q-0.45-.22-0.88-0.47a3.82,3.82,0,0,1-.77-0.59,2.68,2.68,0,0,1-.54-0.8,2.63,2.63,0,0,1-.21-1.09,2.71,2.71,0,0,1,.21-1.1,2.31,2.31,0,0,1,.61-0.83,2.68,2.68,0,0,1,.93-0.52,3.8,3.8,0,0,1,1.2-.18,3.48,3.48,0,0,1,.66.07,4.79,4.79,0,0,1,.63.17,3.48,3.48,0,0,1,.53.23,1.42,1.42,0,0,1,.31.2l0.1,0.11,0,0.09a0.86,0.86,0,0,1,0,.13c0,0.05,0,.12,0,0.19a1.42,1.42,0,0,1,0,.19,0.72,0.72,0,0,1,0,.15,0.25,0.25,0,0,1-.06.09,0.12,0.12,0,0,1-.08,0,0.58,0.58,0,0,1-.27-0.12L842,467.5a3.74,3.74,0,0,0-.64-0.27,2.81,2.81,0,0,0-.85-0.12,2.35,2.35,0,0,0-.82.13,1.65,1.65,0,0,0-.58.36,1.46,1.46,0,0,0-.35.53,1.78,1.78,0,0,0-.12.64,1.62,1.62,0,0,0,.21.84,2.22,2.22,0,0,0,.55.62,4.48,4.48,0,0,0,.78.49l0.88,0.43q0.45,0.22.88,0.47a3.75,3.75,0,0,1,.78.59,2.64,2.64,0,0,1,.55.79A2.56,2.56,0,0,1,843.46,474.08Z" transform="translate(-768.75 -375.89)"/><path class="cls-2" d="M851.78,466.81a1.06,1.06,0,0,1,0,.19,0.45,0.45,0,0,1,0,.14,0.23,0.23,0,0,1-.08.08,0.19,0.19,0,0,1-.1,0h-3.07v9.53a0.18,0.18,0,0,1,0,.09,0.16,0.16,0,0,1-.08.07l-0.15,0L848,477l-0.23,0-0.15,0a0.16,0.16,0,0,1-.08-0.07,0.17,0.17,0,0,1,0-.09v-9.53h-3.07a0.19,0.19,0,0,1-.11,0,0.24,0.24,0,0,1-.08-0.08,0.42,0.42,0,0,1,0-.14,1,1,0,0,1,0-.19,1.1,1.1,0,0,1,0-.2,0.47,0.47,0,0,1,0-.14,0.24,0.24,0,0,1,.08-0.09,0.2,0.2,0,0,1,.11,0h7.11a0.2,0.2,0,0,1,.1,0,0.23,0.23,0,0,1,.08.09,0.49,0.49,0,0,1,0,.14A1.19,1.19,0,0,1,851.78,466.81Z" transform="translate(-768.75 -375.89)"/><path class="cls-2" d="M858.94,476.5a1,1,0,0,1,0,.19,0.39,0.39,0,0,1-.05.14,0.24,0.24,0,0,1-.08.09,0.2,0.2,0,0,1-.1,0h-4.82a0.5,0.5,0,0,1-.29-0.11,0.47,0.47,0,0,1-.15-0.41v-9.55a0.47,0.47,0,0,1,.15-0.4,0.5,0.5,0,0,1,.29-0.11h4.75a0.2,0.2,0,0,1,.1,0,0.23,0.23,0,0,1,.08.09,0.47,0.47,0,0,1,0,.14,1.1,1.1,0,0,1,0,.2,1,1,0,0,1,0,.19,0.42,0.42,0,0,1,0,.14,0.23,0.23,0,0,1-.08.08,0.19,0.19,0,0,1-.1,0h-4.22V471H858a0.21,0.21,0,0,1,.11,0,0.24,0.24,0,0,1,.08.08,0.41,0.41,0,0,1,0,.14,1.1,1.1,0,0,1,0,.2,0.92,0.92,0,0,1,0,.18,0.37,0.37,0,0,1,0,.13,0.22,0.22,0,0,1-.08.07l-0.11,0h-3.64V476h4.3a0.2,0.2,0,0,1,.1,0,0.28,0.28,0,0,1,.08.08,0.36,0.36,0,0,1,.05.14A1.1,1.1,0,0,1,858.94,476.5Z" transform="translate(-768.75 -375.89)"/><path class="cls-2" d="M872.14,476.77a0.18,0.18,0,0,1,0,.09,0.16,0.16,0,0,1-.08.07l-0.15,0-0.23,0-0.22,0-0.15,0a0.16,0.16,0,0,1-.08-0.07,0.17,0.17,0,0,1,0-.09v-9.54h0l-4,9.6,0,0.06-0.09,0-0.13,0h-0.37l-0.13,0-0.08,0a0.13,0.13,0,0,1,0-.06l-3.85-9.6h0v9.54a0.18,0.18,0,0,1,0,.09,0.16,0.16,0,0,1-.08.07l-0.15,0-0.24,0-0.23,0-0.15,0a0.14,0.14,0,0,1-.08-0.07,0.2,0.2,0,0,1,0-.09v-9.91a0.47,0.47,0,0,1,.15-0.4,0.51,0.51,0,0,1,.29-0.11h0.53a1.22,1.22,0,0,1,.35,0,0.85,0.85,0,0,1,.27.13,0.83,0.83,0,0,1,.2.21,1.69,1.69,0,0,1,.14.28l3.4,8.41h0l3.54-8.37a1.74,1.74,0,0,1,.17-0.33,1,1,0,0,1,.19-0.22,0.61,0.61,0,0,1,.21-0.12,0.93,0.93,0,0,1,.25,0h0.58l0.15,0a0.35,0.35,0,0,1,.14.09,0.5,0.5,0,0,1,.11.16,0.6,0.6,0,0,1,0,.25v9.91Z" transform="translate(-768.75 -375.89)"/><path class="cls-2" d="M882.46,476.6a0.5,0.5,0,0,1,0,.2,0.15,0.15,0,0,1-.06.12,0.31,0.31,0,0,1-.16.05h-0.54l-0.16,0a0.19,0.19,0,0,1-.08-0.07l-0.05-.1-1-2.82H876l-0.95,2.8a0.27,0.27,0,0,1,0,.1,0.25,0.25,0,0,1-.09.07l-0.15,0-0.25,0-0.28,0a0.35,0.35,0,0,1-.16-0.06,0.14,0.14,0,0,1-.06-0.12,0.49,0.49,0,0,1,0-.2l3.6-10.07a0.29,0.29,0,0,1,.07-0.11,0.31,0.31,0,0,1,.12-0.07l0.18,0h0.49l0.18,0a0.29,0.29,0,0,1,.12.07,0.3,0.3,0,0,1,.07.11Zm-4.27-9.18h0l-1.94,5.69h3.94Z" transform="translate(-768.75 -375.89)"/><path class="cls-2" d="M895.58,471.49a7.71,7.71,0,0,1-.33,2.35,4.47,4.47,0,0,1-1,1.71,4.05,4.05,0,0,1-1.57,1,6.34,6.34,0,0,1-2.23.35h-2a0.51,0.51,0,0,1-.29-0.11,0.47,0.47,0,0,1-.15-0.41v-9.55a0.47,0.47,0,0,1,.15-0.4,0.51,0.51,0,0,1,.29-0.11h2.16a5.87,5.87,0,0,1,2.22.37,4.06,4.06,0,0,1,1.51,1,4.45,4.45,0,0,1,.92,1.62A6.72,6.72,0,0,1,895.58,471.49Zm-1,0a6.18,6.18,0,0,0-.23-1.71,3.69,3.69,0,0,0-.7-1.36,3.23,3.23,0,0,0-1.2-.9,4.54,4.54,0,0,0-1.85-.32H889V476h1.59a5.22,5.22,0,0,0,1.78-.27,2.91,2.91,0,0,0,1.21-.82,3.63,3.63,0,0,0,.73-1.4A7.35,7.35,0,0,0,894.54,471.54Z" transform="translate(-768.75 -375.89)"/><path class="cls-2" d="M903.43,476.5a1,1,0,0,1,0,.19,0.39,0.39,0,0,1-.05.14,0.24,0.24,0,0,1-.08.09,0.2,0.2,0,0,1-.1,0h-4.82a0.5,0.5,0,0,1-.29-0.11,0.47,0.47,0,0,1-.15-0.41v-9.55a0.47,0.47,0,0,1,.15-0.4,0.5,0.5,0,0,1,.29-0.11h4.75a0.2,0.2,0,0,1,.1,0,0.23,0.23,0,0,1,.08.09,0.47,0.47,0,0,1,0,.14,1.1,1.1,0,0,1,0,.2,1,1,0,0,1,0,.19,0.42,0.42,0,0,1,0,.14,0.23,0.23,0,0,1-.08.08,0.19,0.19,0,0,1-.1,0h-4.22V471h3.64a0.21,0.21,0,0,1,.11,0,0.24,0.24,0,0,1,.08.08,0.41,0.41,0,0,1,0,.14,1.1,1.1,0,0,1,0,.2,0.92,0.92,0,0,1,0,.18,0.37,0.37,0,0,1,0,.13,0.22,0.22,0,0,1-.08.07l-0.11,0h-3.64V476h4.3a0.2,0.2,0,0,1,.1,0,0.28,0.28,0,0,1,.08.08,0.36,0.36,0,0,1,.05.14A1.1,1.1,0,0,1,903.43,476.5Z" transform="translate(-768.75 -375.89)"/><path class="cls-2" d="M917,467.69a1.11,1.11,0,0,1,0,.2,0.64,0.64,0,0,1,0,.15,0.23,0.23,0,0,1-.07.09,0.15,0.15,0,0,1-.09,0,0.68,0.68,0,0,1-.31-0.16,4.48,4.48,0,0,0-.58-0.36,5.32,5.32,0,0,0-.89-0.36,4.14,4.14,0,0,0-1.24-.16,3.69,3.69,0,0,0-1.63.35,3.53,3.53,0,0,0-1.21,1,4.26,4.26,0,0,0-.75,1.44,6,6,0,0,0-.26,1.79,5.74,5.74,0,0,0,.29,1.91A4.1,4.1,0,0,0,911,475a3.47,3.47,0,0,0,1.24.88,4,4,0,0,0,1.57.3,4.65,4.65,0,0,0,1.11-.14,4,4,0,0,0,1.06-.42v-3.43h-2.63a0.21,0.21,0,0,1-.19-0.11,0.69,0.69,0,0,1-.06-0.33,1.1,1.1,0,0,1,0-.2,0.41,0.41,0,0,1,0-.14,0.22,0.22,0,0,1,.08-0.08,0.21,0.21,0,0,1,.11,0h3.15l0.15,0a0.41,0.41,0,0,1,.15.08,0.4,0.4,0,0,1,.11.16,0.69,0.69,0,0,1,0,.25v3.93a0.86,0.86,0,0,1-.06.33,0.63,0.63,0,0,1-.28.27,4.8,4.8,0,0,1-.57.28,5.6,5.6,0,0,1-.74.25,6.21,6.21,0,0,1-.77.16,5.62,5.62,0,0,1-.76.05,5.32,5.32,0,0,1-2.09-.39,4.31,4.31,0,0,1-1.55-1.1,4.84,4.84,0,0,1-1-1.68,6.63,6.63,0,0,1-.33-2.16,6.7,6.7,0,0,1,.36-2.25,5.05,5.05,0,0,1,1-1.74,4.54,4.54,0,0,1,1.57-1.12,5.32,5.32,0,0,1,3.08-.29,6.25,6.25,0,0,1,.9.26,3.8,3.8,0,0,1,.68.33,2.26,2.26,0,0,1,.38.28,0.59,0.59,0,0,1,.14.2A0.89,0.89,0,0,1,917,467.69Z" transform="translate(-768.75 -375.89)"/><path class="cls-2" d="M925.3,476.5a1,1,0,0,1,0,.19,0.41,0.41,0,0,1-.05.14,0.24,0.24,0,0,1-.08.09,0.19,0.19,0,0,1-.1,0h-4.82a0.51,0.51,0,0,1-.29-0.11,0.47,0.47,0,0,1-.15-0.41v-9.55a0.47,0.47,0,0,1,.15-0.4,0.51,0.51,0,0,1,.29-0.11H925a0.2,0.2,0,0,1,.1,0,0.23,0.23,0,0,1,.08.09,0.47,0.47,0,0,1,0,.14,1.09,1.09,0,0,1,0,.2,1,1,0,0,1,0,.19,0.42,0.42,0,0,1,0,.14,0.23,0.23,0,0,1-.08.08,0.2,0.2,0,0,1-.1,0h-4.22V471h3.64a0.21,0.21,0,0,1,.11,0,0.23,0.23,0,0,1,.08.08,0.43,0.43,0,0,1,0,.14,1.2,1.2,0,0,1,0,.2,1,1,0,0,1,0,.18,0.39,0.39,0,0,1,0,.13,0.21,0.21,0,0,1-.08.07l-0.11,0h-3.64V476H925a0.2,0.2,0,0,1,.1,0,0.28,0.28,0,0,1,.08.08,0.38,0.38,0,0,1,.05.14A1.1,1.1,0,0,1,925.3,476.5Z" transform="translate(-768.75 -375.89)"/><path class="cls-2" d="M934.19,476.76a0.22,0.22,0,0,1,0,.1,0.15,0.15,0,0,1-.08.07l-0.16,0-0.25,0h-0.23a0.42,0.42,0,0,1-.16,0,0.3,0.3,0,0,1-.1-0.1,0.71,0.71,0,0,1-.07-0.16l-1-2.57c-0.11-.29-0.23-0.56-0.36-0.82a2.7,2.7,0,0,0-.46-0.67,2,2,0,0,0-.65-0.45,2.31,2.31,0,0,0-.92-0.16h-1.07v4.77a0.18,0.18,0,0,1,0,.09,0.17,0.17,0,0,1-.08.07l-0.15,0-0.23,0L928,477l-0.15,0a0.16,0.16,0,0,1-.08-0.07,0.17,0.17,0,0,1,0-.09v-9.91a0.47,0.47,0,0,1,.15-0.4,0.5,0.5,0,0,1,.29-0.11h1.93l0.63,0,0.46,0.05a3.42,3.42,0,0,1,1,.34,2.43,2.43,0,0,1,.72.58,2.34,2.34,0,0,1,.43.79,3.1,3.1,0,0,1,.14.94,2.84,2.84,0,0,1-.14.94,2.32,2.32,0,0,1-.41.73,2.64,2.64,0,0,1-.63.54,4.13,4.13,0,0,1-.8.38,2.09,2.09,0,0,1,.47.3,2.38,2.38,0,0,1,.39.43,4.12,4.12,0,0,1,.34.58c0.11,0.22.21,0.47,0.32,0.74l1,2.47c0.07,0.19.11,0.32,0.13,0.39A0.71,0.71,0,0,1,934.19,476.76Zm-1.71-7.57a2.13,2.13,0,0,0-.29-1.15,1.66,1.66,0,0,0-1-.67,3.11,3.11,0,0,0-.5-0.09q-0.27,0-.71,0h-1.27v3.88h1.48a3.09,3.09,0,0,0,1-.15,2,2,0,0,0,.71-0.41,1.57,1.57,0,0,0,.41-0.61A2.15,2.15,0,0,0,932.48,469.19Z" transform="translate(-768.75 -375.89)"/><path class="cls-2" d="M941.94,476.5a1,1,0,0,1,0,.19,0.39,0.39,0,0,1-.05.14,0.24,0.24,0,0,1-.08.09,0.2,0.2,0,0,1-.1,0h-4.82a0.5,0.5,0,0,1-.29-0.11,0.47,0.47,0,0,1-.15-0.41v-9.55a0.47,0.47,0,0,1,.15-0.4,0.5,0.5,0,0,1,.29-0.11h4.75a0.2,0.2,0,0,1,.1,0,0.23,0.23,0,0,1,.08.09,0.47,0.47,0,0,1,0,.14,1.1,1.1,0,0,1,0,.2,1,1,0,0,1,0,.19,0.42,0.42,0,0,1,0,.14,0.23,0.23,0,0,1-.08.08,0.19,0.19,0,0,1-.1,0h-4.22V471H941a0.21,0.21,0,0,1,.11,0,0.24,0.24,0,0,1,.08.08,0.41,0.41,0,0,1,0,.14,1.1,1.1,0,0,1,0,.2,0.92,0.92,0,0,1,0,.18,0.37,0.37,0,0,1,0,.13,0.22,0.22,0,0,1-.08.07l-0.11,0h-3.64V476h4.3a0.2,0.2,0,0,1,.1,0,0.28,0.28,0,0,1,.08.08,0.36,0.36,0,0,1,.05.14A1.1,1.1,0,0,1,941.94,476.5Z" transform="translate(-768.75 -375.89)"/><path class="cls-2" d="M951.77,476.46a0.6,0.6,0,0,1,0,.25,0.47,0.47,0,0,1-.11.16,0.39,0.39,0,0,1-.15.09l-0.16,0h-0.2a1,1,0,0,1-.29,0,0.74,0.74,0,0,1-.25-0.14,1.48,1.48,0,0,1-.25-0.27,4.55,4.55,0,0,1-.27-0.44l-3.63-6.61-0.54-1-0.52-1h0q0,0.6,0,1.22v8.08a0.18,0.18,0,0,1,0,.09,0.16,0.16,0,0,1-.08.07l-0.15,0-0.23,0-0.23,0-0.15,0a0.16,0.16,0,0,1-.08-0.07,0.18,0.18,0,0,1,0-.09v-9.91a0.47,0.47,0,0,1,.15-0.4,0.51,0.51,0,0,1,.29-0.11h0.4a1.32,1.32,0,0,1,.32,0,0.65,0.65,0,0,1,.23.11,1,1,0,0,1,.2.22,3.64,3.64,0,0,1,.22.36l2.78,5.06,0.5,0.91,0.46,0.86,0.44,0.83,0.43,0.83h0q0-.69,0-1.43v-7.59a0.18,0.18,0,0,1,0-.09,0.18,0.18,0,0,1,.08-0.07l0.15,0h0.46l0.15,0a0.21,0.21,0,0,1,.08.07,0.16,0.16,0,0,1,0,.09v9.91Z" transform="translate(-768.75 -375.89)"/><path class="cls-2" d="M961.52,475.5a1.38,1.38,0,0,1,0,.16,0.77,0.77,0,0,1,0,.13,0.47,0.47,0,0,1,0,.11,0.66,0.66,0,0,1-.1.13,2.55,2.55,0,0,1-.33.25,4,4,0,0,1-.64.35,5.21,5.21,0,0,1-.89.29,4.64,4.64,0,0,1-1.11.12,4.31,4.31,0,0,1-1.76-.35,3.6,3.6,0,0,1-1.34-1,4.72,4.72,0,0,1-.85-1.65,7.7,7.7,0,0,1-.3-2.24,7.83,7.83,0,0,1,.32-2.32,5.2,5.2,0,0,1,.9-1.74,3.89,3.89,0,0,1,1.38-1.1,4.15,4.15,0,0,1,1.79-.38,4.42,4.42,0,0,1,.89.09,5.32,5.32,0,0,1,.8.23,3.8,3.8,0,0,1,.66.32,2.25,2.25,0,0,1,.4.29,1,1,0,0,1,.13.16,0.45,0.45,0,0,1,0,.11,1,1,0,0,1,0,.14c0,0.05,0,.11,0,0.18a1.35,1.35,0,0,1,0,.2,0.53,0.53,0,0,1,0,.15,0.27,0.27,0,0,1-.07.09,0.15,0.15,0,0,1-.1,0,0.59,0.59,0,0,1-.31-0.17,5.13,5.13,0,0,0-.53-0.37,4.21,4.21,0,0,0-.81-0.37,3.45,3.45,0,0,0-1.14-.17,3,3,0,0,0-1.33.3,2.88,2.88,0,0,0-1,.88,4.36,4.36,0,0,0-.68,1.43,8,8,0,0,0,0,3.83A4,4,0,0,0,956,475a2.78,2.78,0,0,0,1,.86,3.25,3.25,0,0,0,1.41.29,3.4,3.4,0,0,0,1.13-.17,4.44,4.44,0,0,0,.82-0.37,5.8,5.8,0,0,0,.56-0.37,0.66,0.66,0,0,1,.34-0.17l0.08,0a0.15,0.15,0,0,1,.05.07,0.7,0.7,0,0,1,0,.14A1.55,1.55,0,0,1,961.52,475.5Z" transform="translate(-768.75 -375.89)"/><path class="cls-2" d="M964.47,476.77a0.18,0.18,0,0,1,0,.09,0.17,0.17,0,0,1-.08.07l-0.15,0L964,477l-0.23,0-0.15,0a0.16,0.16,0,0,1-.08-0.07,0.17,0.17,0,0,1,0-.09V466.52a0.16,0.16,0,0,1,0-.09,0.19,0.19,0,0,1,.09-0.07l0.15,0,0.22,0,0.23,0,0.15,0a0.17,0.17,0,0,1,.08.07,0.18,0.18,0,0,1,0,.09v10.26Z" transform="translate(-768.75 -375.89)"/><path class="cls-2" d="M974.79,476.6a0.54,0.54,0,0,1,0,.2,0.15,0.15,0,0,1-.06.12,0.31,0.31,0,0,1-.16.05h-0.54l-0.16,0a0.19,0.19,0,0,1-.08-0.07l-0.05-.1-1-2.82h-4.52l-0.95,2.8a0.27,0.27,0,0,1,0,.1,0.25,0.25,0,0,1-.09.07L967,477l-0.25,0-0.28,0a0.36,0.36,0,0,1-.16-0.06,0.15,0.15,0,0,1-.06-0.12,0.49,0.49,0,0,1,0-.2l3.6-10.07a0.28,0.28,0,0,1,.07-0.11,0.33,0.33,0,0,1,.12-0.07l0.18,0h0.49l0.18,0a0.29,0.29,0,0,1,.12.07,0.31,0.31,0,0,1,.07.11Zm-4.27-9.18h0l-1.94,5.69h3.94Z" transform="translate(-768.75 -375.89)"/><path class="cls-2" d="M987.42,476.77a0.18,0.18,0,0,1,0,.09,0.16,0.16,0,0,1-.08.07l-0.15,0-0.23,0-0.22,0-0.15,0a0.16,0.16,0,0,1-.08-0.07,0.17,0.17,0,0,1,0-.09v-9.54h0l-4,9.6,0,0.06-0.09,0-0.13,0h-0.37l-0.13,0-0.08,0a0.13,0.13,0,0,1,0-.06l-3.85-9.6h0v9.54a0.18,0.18,0,0,1,0,.09,0.16,0.16,0,0,1-.08.07l-0.15,0-0.24,0-0.23,0-0.15,0a0.14,0.14,0,0,1-.08-0.07,0.2,0.2,0,0,1,0-.09v-9.91a0.47,0.47,0,0,1,.15-0.4,0.51,0.51,0,0,1,.29-0.11h0.53a1.22,1.22,0,0,1,.35,0,0.85,0.85,0,0,1,.27.13,0.83,0.83,0,0,1,.2.21,1.69,1.69,0,0,1,.14.28l3.4,8.41h0l3.54-8.37a1.74,1.74,0,0,1,.17-0.33,1,1,0,0,1,.19-0.22,0.61,0.61,0,0,1,.21-0.12,0.93,0.93,0,0,1,.25,0H987l0.15,0a0.35,0.35,0,0,1,.14.09,0.5,0.5,0,0,1,.11.16,0.6,0.6,0,0,1,0,.25v9.91Z" transform="translate(-768.75 -375.89)"/><path class="cls-2" d="M995.95,476.5a1,1,0,0,1,0,.19,0.41,0.41,0,0,1-.05.14,0.24,0.24,0,0,1-.08.09,0.19,0.19,0,0,1-.1,0h-4.82a0.51,0.51,0,0,1-.29-0.11,0.47,0.47,0,0,1-.15-0.41v-9.55a0.47,0.47,0,0,1,.15-0.4,0.51,0.51,0,0,1,.29-0.11h4.75a0.2,0.2,0,0,1,.1,0,0.23,0.23,0,0,1,.08.09,0.47,0.47,0,0,1,0,.14,1.09,1.09,0,0,1,0,.2,1,1,0,0,1,0,.19,0.42,0.42,0,0,1,0,.14,0.23,0.23,0,0,1-.08.08,0.2,0.2,0,0,1-.1,0h-4.22V471H995a0.21,0.21,0,0,1,.11,0,0.23,0.23,0,0,1,.08.08,0.43,0.43,0,0,1,0,.14,1.2,1.2,0,0,1,0,.2,1,1,0,0,1,0,.18,0.39,0.39,0,0,1,0,.13,0.21,0.21,0,0,1-.08.07l-0.11,0h-3.64V476h4.3a0.2,0.2,0,0,1,.1,0,0.28,0.28,0,0,1,.08.08,0.38,0.38,0,0,1,.05.14A1.1,1.1,0,0,1,995.95,476.5Z" transform="translate(-768.75 -375.89)"/><path class="cls-2" d="M1005.78,476.46a0.6,0.6,0,0,1,0,.25,0.47,0.47,0,0,1-.11.16,0.38,0.38,0,0,1-.15.09l-0.16,0h-0.2a1,1,0,0,1-.29,0,0.74,0.74,0,0,1-.25-0.14,1.48,1.48,0,0,1-.25-0.27,4.75,4.75,0,0,1-.27-0.44l-3.63-6.61-0.54-1-0.52-1h0q0,0.6,0,1.22v8.08a0.18,0.18,0,0,1,0,.09,0.17,0.17,0,0,1-.08.07l-0.15,0-0.23,0-0.23,0-0.15,0a0.16,0.16,0,0,1-.08-0.07,0.17,0.17,0,0,1,0-.09v-9.91a0.47,0.47,0,0,1,.15-0.4,0.5,0.5,0,0,1,.29-0.11h0.4a1.33,1.33,0,0,1,.32,0,0.67,0.67,0,0,1,.23.11,1,1,0,0,1,.2.22,3.84,3.84,0,0,1,.22.36l2.78,5.06,0.5,0.91,0.46,0.86,0.44,0.83,0.43,0.83h0q0-.69,0-1.43v-7.59a0.17,0.17,0,0,1,0-.09,0.18,0.18,0,0,1,.08-0.07l0.15,0h0.46l0.15,0a0.22,0.22,0,0,1,.08.07,0.15,0.15,0,0,1,0,.09v9.91Z" transform="translate(-768.75 -375.89)"/><path class="cls-2" d="M1015,466.81a1.06,1.06,0,0,1,0,.19,0.45,0.45,0,0,1,0,.14,0.23,0.23,0,0,1-.08.08,0.19,0.19,0,0,1-.1,0h-3.07v9.53a0.18,0.18,0,0,1,0,.09,0.16,0.16,0,0,1-.08.07l-0.15,0-0.23,0-0.23,0-0.15,0a0.16,0.16,0,0,1-.08-0.07,0.17,0.17,0,0,1,0-.09v-9.53h-3.07a0.19,0.19,0,0,1-.11,0,0.24,0.24,0,0,1-.08-0.08,0.42,0.42,0,0,1,0-.14,1,1,0,0,1,0-.19,1.1,1.1,0,0,1,0-.2,0.47,0.47,0,0,1,0-.14,0.24,0.24,0,0,1,.08-0.09,0.2,0.2,0,0,1,.11,0h7.11a0.2,0.2,0,0,1,.1,0,0.23,0.23,0,0,1,.08.09,0.49,0.49,0,0,1,0,.14A1.19,1.19,0,0,1,1015,466.81Z" transform="translate(-768.75 -375.89)"/><path class="cls-2" d="M1024.47,471.52a8.63,8.63,0,0,1-.28,2.29,4.93,4.93,0,0,1-.85,1.75,3.76,3.76,0,0,1-1.42,1.12,5.35,5.35,0,0,1-4,0,3.47,3.47,0,0,1-1.35-1.06,4.56,4.56,0,0,1-.78-1.69,9.26,9.26,0,0,1-.25-2.25,8.48,8.48,0,0,1,.28-2.26,4.78,4.78,0,0,1,.85-1.73,3.84,3.84,0,0,1,1.42-1.11,4.77,4.77,0,0,1,2-.39,4.71,4.71,0,0,1,1.94.37,3.53,3.53,0,0,1,1.36,1.06,4.56,4.56,0,0,1,.8,1.67A8.74,8.74,0,0,1,1024.47,471.52Zm-1,.09a8.64,8.64,0,0,0-.17-1.76,4.16,4.16,0,0,0-.56-1.43,2.78,2.78,0,0,0-1-1,3.39,3.39,0,0,0-1.61-.35,3.29,3.29,0,0,0-1.61.36,3,3,0,0,0-1.07,1,4.14,4.14,0,0,0-.59,1.43,8.06,8.06,0,0,0-.18,1.73,9.27,9.27,0,0,0,.16,1.8,4.16,4.16,0,0,0,.55,1.44,2.73,2.73,0,0,0,1,1,3.44,3.44,0,0,0,1.63.35,3.28,3.28,0,0,0,1.63-.37,3,3,0,0,0,1.07-1,4.25,4.25,0,0,0,.58-1.45A8.26,8.26,0,0,0,1023.44,471.61Z" transform="translate(-768.75 -375.89)"/><path class="cls-2" d="M1038.1,471.49a7.71,7.71,0,0,1-.33,2.35,4.47,4.47,0,0,1-1,1.71,4,4,0,0,1-1.57,1,6.34,6.34,0,0,1-2.23.35h-2a0.5,0.5,0,0,1-.29-0.11,0.47,0.47,0,0,1-.15-0.41v-9.55a0.47,0.47,0,0,1,.15-0.4,0.5,0.5,0,0,1,.29-0.11h2.17a5.87,5.87,0,0,1,2.22.37,4.07,4.07,0,0,1,1.51,1,4.46,4.46,0,0,1,.92,1.62A6.72,6.72,0,0,1,1038.1,471.49Zm-1,0a6.18,6.18,0,0,0-.23-1.71,3.72,3.72,0,0,0-.7-1.36,3.23,3.23,0,0,0-1.2-.9,4.55,4.55,0,0,0-1.85-.32h-1.58V476h1.59a5.22,5.22,0,0,0,1.78-.27,2.9,2.9,0,0,0,1.21-.82,3.63,3.63,0,0,0,.73-1.4A7.39,7.39,0,0,0,1037.06,471.54Z" transform="translate(-768.75 -375.89)"/><path class="cls-2" d="M1045.94,476.5a1,1,0,0,1,0,.19,0.41,0.41,0,0,1-.05.14,0.24,0.24,0,0,1-.08.09,0.19,0.19,0,0,1-.1,0h-4.82a0.51,0.51,0,0,1-.29-0.11,0.47,0.47,0,0,1-.15-0.41v-9.55a0.47,0.47,0,0,1,.15-0.4,0.51,0.51,0,0,1,.29-0.11h4.75a0.2,0.2,0,0,1,.1,0,0.23,0.23,0,0,1,.08.09,0.47,0.47,0,0,1,0,.14,1.09,1.09,0,0,1,0,.2,1,1,0,0,1,0,.19,0.42,0.42,0,0,1,0,.14,0.23,0.23,0,0,1-.08.08,0.2,0.2,0,0,1-.1,0h-4.22V471H1045a0.21,0.21,0,0,1,.11,0,0.23,0.23,0,0,1,.08.08,0.43,0.43,0,0,1,0,.14,1.2,1.2,0,0,1,0,.2,1,1,0,0,1,0,.18,0.39,0.39,0,0,1,0,.13,0.21,0.21,0,0,1-.08.07l-0.11,0h-3.64V476h4.3a0.2,0.2,0,0,1,.1,0,0.28,0.28,0,0,1,.08.08,0.38,0.38,0,0,1,.05.14A1.1,1.1,0,0,1,1045.94,476.5Z" transform="translate(-768.75 -375.89)"/><path class="cls-2" d="M1057.59,476.5a1,1,0,0,1,0,.19,0.41,0.41,0,0,1-.05.14,0.24,0.24,0,0,1-.08.09,0.19,0.19,0,0,1-.1,0h-4.82a0.51,0.51,0,0,1-.29-0.11,0.47,0.47,0,0,1-.15-0.41v-9.55a0.47,0.47,0,0,1,.15-0.4,0.51,0.51,0,0,1,.29-0.11h4.75a0.2,0.2,0,0,1,.1,0,0.23,0.23,0,0,1,.08.09,0.47,0.47,0,0,1,0,.14,1.09,1.09,0,0,1,0,.2,1,1,0,0,1,0,.19,0.42,0.42,0,0,1,0,.14,0.23,0.23,0,0,1-.08.08,0.2,0.2,0,0,1-.1,0H1053V471h3.64a0.21,0.21,0,0,1,.11,0,0.23,0.23,0,0,1,.08.08,0.43,0.43,0,0,1,0,.14,1.2,1.2,0,0,1,0,.2,1,1,0,0,1,0,.18,0.39,0.39,0,0,1,0,.13,0.21,0.21,0,0,1-.08.07l-0.11,0H1053V476h4.3a0.2,0.2,0,0,1,.1,0,0.28,0.28,0,0,1,.08.08,0.38,0.38,0,0,1,.05.14A1.1,1.1,0,0,1,1057.59,476.5Z" transform="translate(-768.75 -375.89)"/><path class="cls-2" d="M1063.66,476.76a0.28,0.28,0,0,1-.07.11,0.34,0.34,0,0,1-.12.07l-0.18,0h-0.42l-0.14,0-0.11,0-0.09,0-0.06-.06a0.29,0.29,0,0,1,0-.08l-3.52-10.07a0.5,0.5,0,0,1,0-.2,0.15,0.15,0,0,1,.06-0.12,0.35,0.35,0,0,1,.17-0.05h0.54l0.14,0a0.21,0.21,0,0,1,.08.07l0.05,0.1,3.2,9.32h0l3.1-9.32a0.43,0.43,0,0,1,0-.1,0.17,0.17,0,0,1,.08-0.07l0.16,0h0.27l0.29,0a0.29,0.29,0,0,1,.15.06,0.14,0.14,0,0,1,0,.11,0.71,0.71,0,0,1-.05.2Z" transform="translate(-768.75 -375.89)"/><path class="cls-2" d="M1074.59,476.5a1,1,0,0,1,0,.19,0.41,0.41,0,0,1-.05.14,0.24,0.24,0,0,1-.08.09,0.19,0.19,0,0,1-.1,0h-4.82a0.51,0.51,0,0,1-.29-0.11,0.47,0.47,0,0,1-.15-0.41v-9.55a0.47,0.47,0,0,1,.15-0.4,0.51,0.51,0,0,1,.29-0.11h4.75a0.2,0.2,0,0,1,.1,0,0.23,0.23,0,0,1,.08.09,0.47,0.47,0,0,1,0,.14,1.09,1.09,0,0,1,0,.2,1,1,0,0,1,0,.19,0.42,0.42,0,0,1,0,.14,0.23,0.23,0,0,1-.08.08,0.2,0.2,0,0,1-.1,0H1070V471h3.64a0.21,0.21,0,0,1,.11,0,0.23,0.23,0,0,1,.08.08,0.43,0.43,0,0,1,0,.14,1.2,1.2,0,0,1,0,.2,1,1,0,0,1,0,.18,0.39,0.39,0,0,1,0,.13,0.21,0.21,0,0,1-.08.07l-0.11,0H1070V476h4.3a0.2,0.2,0,0,1,.1,0,0.28,0.28,0,0,1,.08.08,0.38,0.38,0,0,1,.05.14A1.1,1.1,0,0,1,1074.59,476.5Z" transform="translate(-768.75 -375.89)"/><path class="cls-2" d="M1084.42,476.46a0.6,0.6,0,0,1,0,.25,0.47,0.47,0,0,1-.11.16,0.38,0.38,0,0,1-.15.09l-0.16,0h-0.2a1,1,0,0,1-.29,0,0.74,0.74,0,0,1-.25-0.14,1.48,1.48,0,0,1-.25-0.27,4.75,4.75,0,0,1-.27-0.44l-3.63-6.61-0.54-1-0.52-1h0q0,0.6,0,1.22v8.08a0.18,0.18,0,0,1,0,.09,0.17,0.17,0,0,1-.08.07l-0.15,0-0.23,0-0.23,0-0.15,0a0.16,0.16,0,0,1-.08-0.07,0.17,0.17,0,0,1,0-.09v-9.91a0.47,0.47,0,0,1,.15-0.4,0.5,0.5,0,0,1,.29-0.11h0.4a1.33,1.33,0,0,1,.32,0,0.67,0.67,0,0,1,.23.11,1,1,0,0,1,.2.22,3.84,3.84,0,0,1,.22.36l2.78,5.06,0.5,0.91,0.46,0.86,0.44,0.83,0.43,0.83h0q0-.69,0-1.43v-7.59a0.17,0.17,0,0,1,0-.09,0.18,0.18,0,0,1,.08-0.07l0.15,0h0.46l0.15,0a0.22,0.22,0,0,1,.08.07,0.15,0.15,0,0,1,0,.09v9.91Z" transform="translate(-768.75 -375.89)"/><path class="cls-2" d="M1093.67,466.81a1.06,1.06,0,0,1,0,.19,0.45,0.45,0,0,1,0,.14,0.23,0.23,0,0,1-.08.08,0.19,0.19,0,0,1-.1,0h-3.07v9.53a0.18,0.18,0,0,1,0,.09,0.16,0.16,0,0,1-.08.07l-0.15,0-0.23,0-0.23,0-0.15,0a0.16,0.16,0,0,1-.08-0.07,0.17,0.17,0,0,1,0-.09v-9.53h-3.07a0.19,0.19,0,0,1-.11,0,0.24,0.24,0,0,1-.08-0.08,0.42,0.42,0,0,1,0-.14,1,1,0,0,1,0-.19,1.1,1.1,0,0,1,0-.2,0.47,0.47,0,0,1,0-.14,0.24,0.24,0,0,1,.08-0.09,0.2,0.2,0,0,1,.11,0h7.11a0.2,0.2,0,0,1,.1,0,0.23,0.23,0,0,1,.08.09,0.49,0.49,0,0,1,0,.14A1.19,1.19,0,0,1,1093.67,466.81Z" transform="translate(-768.75 -375.89)"/><path class="cls-2" d="M1103.11,471.52a8.63,8.63,0,0,1-.28,2.29,4.94,4.94,0,0,1-.85,1.75,3.76,3.76,0,0,1-1.42,1.12,5.36,5.36,0,0,1-4,0,3.47,3.47,0,0,1-1.35-1.06,4.58,4.58,0,0,1-.78-1.69,9.26,9.26,0,0,1-.25-2.25,8.52,8.52,0,0,1,.28-2.26,4.76,4.76,0,0,1,.85-1.73,3.83,3.83,0,0,1,1.42-1.11,4.78,4.78,0,0,1,2-.39,4.72,4.72,0,0,1,1.94.37,3.54,3.54,0,0,1,1.36,1.06,4.56,4.56,0,0,1,.79,1.67A8.7,8.7,0,0,1,1103.11,471.52Zm-1,.09a8.64,8.64,0,0,0-.17-1.76,4.18,4.18,0,0,0-.57-1.43,2.77,2.77,0,0,0-1-1,3.4,3.4,0,0,0-1.62-.35,3.29,3.29,0,0,0-1.61.36,3,3,0,0,0-1.07,1,4.18,4.18,0,0,0-.59,1.43,8.06,8.06,0,0,0-.18,1.73,9.35,9.35,0,0,0,.16,1.8,4.16,4.16,0,0,0,.55,1.44,2.74,2.74,0,0,0,1,1,3.43,3.43,0,0,0,1.63.35,3.28,3.28,0,0,0,1.63-.37,3,3,0,0,0,1.07-1,4.28,4.28,0,0,0,.58-1.45A8.32,8.32,0,0,0,1102.08,471.61Z" transform="translate(-768.75 -375.89)"/><path class="cls-2" d="M1110.7,474.08a3.08,3.08,0,0,1-.25,1.26,2.68,2.68,0,0,1-.69.95,3.07,3.07,0,0,1-1.06.59,4.22,4.22,0,0,1-1.34.2,4.43,4.43,0,0,1-.93-0.09,5.23,5.23,0,0,1-.78-0.23,4.11,4.11,0,0,1-.58-0.27,1.43,1.43,0,0,1-.32-0.23,0.57,0.57,0,0,1-.13-0.22,1.07,1.07,0,0,1,0-.32,1.32,1.32,0,0,1,0-.23,0.53,0.53,0,0,1,0-.15,0.16,0.16,0,0,1,.07-0.08l0.09,0a0.63,0.63,0,0,1,.31.14,4.6,4.6,0,0,0,.53.31,4.91,4.91,0,0,0,.77.31,3.48,3.48,0,0,0,1,.14,2.81,2.81,0,0,0,.89-0.13,2.05,2.05,0,0,0,.7-0.39,1.74,1.74,0,0,0,.46-0.63,2.1,2.1,0,0,0,.16-0.85,1.63,1.63,0,0,0-.21-0.84,2.21,2.21,0,0,0-.54-0.62,4.61,4.61,0,0,0-.77-0.48l-0.88-.43q-0.45-.22-0.88-0.47a3.85,3.85,0,0,1-.77-0.59,2.68,2.68,0,0,1-.54-0.8,2.61,2.61,0,0,1-.21-1.09,2.7,2.7,0,0,1,.21-1.1,2.32,2.32,0,0,1,.6-0.83,2.68,2.68,0,0,1,.93-0.52,3.8,3.8,0,0,1,1.2-.18,3.49,3.49,0,0,1,.66.07,4.83,4.83,0,0,1,.63.17,3.57,3.57,0,0,1,.53.23,1.39,1.39,0,0,1,.31.2l0.1,0.11a0.45,0.45,0,0,1,0,.09,0.77,0.77,0,0,1,0,.13c0,0.05,0,.12,0,0.19a1.42,1.42,0,0,1,0,.19,0.61,0.61,0,0,1,0,.15,0.24,0.24,0,0,1-.06.09,0.12,0.12,0,0,1-.08,0,0.57,0.57,0,0,1-.27-0.12l-0.45-.27a3.7,3.7,0,0,0-.64-0.27,2.82,2.82,0,0,0-.85-0.12,2.34,2.34,0,0,0-.82.13,1.63,1.63,0,0,0-.58.36,1.45,1.45,0,0,0-.35.53,1.8,1.8,0,0,0-.12.64,1.63,1.63,0,0,0,.21.84,2.23,2.23,0,0,0,.55.62,4.53,4.53,0,0,0,.78.49l0.88,0.43q0.45,0.22.88,0.47a3.79,3.79,0,0,1,.78.59,2.65,2.65,0,0,1,.55.79A2.58,2.58,0,0,1,1110.7,474.08Z" transform="translate(-768.75 -375.89)"/><path class="cls-1" d="M789.32,375.89C801,375.89,807,382.84,807,395v2.39H795.67v-3.15c0-5.43-2.19-7.49-6-7.49s-6,2.06-6,7.49,2.41,9.66,10.29,16.5c10.07,8.79,13.24,15.09,13.24,23.77,0,12.16-6.13,19.11-17.94,19.11s-17.95-6.95-17.95-19.11v-4.67h11.38v5.43c0,5.43,2.41,7.38,6.24,7.38s6.24-2,6.24-7.38-2.41-9.66-10.29-16.5C774.77,410,771.6,403.68,771.6,395,771.6,382.84,777.61,375.89,789.32,375.89Z" transform="translate(-768.75 -375.89)"/><path class="cls-1" d="M814.05,376.76h12v76h-12v-76Z" transform="translate(-768.75 -375.89)"/><path class="cls-1" d="M851,375.89c11.71,0,17.73,6.95,17.73,19.1v2.39H857.38v-3.15c0-5.43-2.19-7.49-6-7.49s-6,2.06-6,7.49,2.41,9.66,10.29,16.5c10.07,8.79,13.24,15.09,13.24,23.77,0,12.16-6.13,19.11-17.94,19.11S833,446.67,833,434.51v-4.67h11.38v5.43c0,5.43,2.41,7.38,6.24,7.38s6.24-2,6.24-7.38-2.41-9.66-10.29-16.5C836.48,410,833.31,403.68,833.31,395,833.31,382.84,839.33,375.89,851,375.89Z" transform="translate(-768.75 -375.89)"/><path class="cls-1" d="M887.8,408.78h16.52v10.86H887.8v22.25h20.79v10.86H875.77v-76h32.83v10.86H887.8v21.17Z" transform="translate(-768.75 -375.89)"/><path class="cls-1" d="M934.09,438.74h0.22l9.08-62h11.05l-11.82,76H924.68l-11.82-76H925Z" transform="translate(-768.75 -375.89)"/><path class="cls-1" d="M972.06,408.78h16.52v10.86H972.06v22.25h20.79v10.86H960v-76h32.83v10.86H972.06v21.17Z" transform="translate(-768.75 -375.89)"/><path class="cls-1" d="M1011.23,397.71H1011v55h-10.83v-76h15.1l12.14,45.48h0.22V376.76h10.72v76H1026Z" transform="translate(-768.75 -375.89)"/><path class="cls-1" d="M1043.51,376.76h37.2v10.86h-12.58v65.13h-12V387.62h-12.58V376.76Z" transform="translate(-768.75 -375.89)"/><path class="cls-1" d="M1085,395c0-12.16,6.46-19.1,18.27-19.1s18.27,6.95,18.27,19.1v39.51c0,12.16-6.46,19.11-18.27,19.11S1085,446.67,1085,434.51V395Zm12,40.27c0,5.43,2.41,7.49,6.24,7.49s6.24-2.06,6.24-7.49v-41c0-5.43-2.41-7.49-6.24-7.49s-6.24,2.06-6.24,7.49v41Z" transform="translate(-768.75 -375.89)"/><path class="cls-1" d="M1145.5,375.89c11.71,0,17.73,6.95,17.73,19.1v2.39h-11.38v-3.15c0-5.43-2.19-7.49-6-7.49s-6,2.06-6,7.49,2.41,9.66,10.29,16.5c10.07,8.79,13.24,15.09,13.24,23.77,0,12.16-6.13,19.11-17.95,19.11s-17.95-6.95-17.95-19.11v-4.67h11.38v5.43c0,5.43,2.41,7.38,6.24,7.38s6.24-2,6.24-7.38-2.41-9.66-10.29-16.5c-10.07-8.79-13.24-15.09-13.24-23.77C1127.77,382.84,1133.79,375.89,1145.5,375.89Z" transform="translate(-768.75 -375.89)"/></svg>